# xmcd CD database file
#
# Track frame offsets:
#	150
#	34701
#	84183
#	108751
#	146969
#
# Disc length: 2349 seconds
#
# Revision: 0
# Processed by: cddbd v1.5.2PL0 Copyright (c) Steve Scherf et al.
# Submitted via: CDex 1.70beta3
#
DISCID=36092b05
DTITLE=Elvin Jones - Coalition
DYEAR=1970
DGENRE=Jazz
TTITLE0=Shinjitu
TTITLE1=Yesterdays
TTITLE2=5/4 Thing
TTITLE3=Ural Stradania
TTITLE4=Simone
EXTD=YEAR: 1970
EXTT0=
EXTT1=
EXTT2=
EXTT3=
EXTT4=
PLAYORDER=
